PathFileType  4	(X/Y/Z) C:\Users\antoi\Documents\MyRepositories\mobilecap\ResultsAnalysis
DataRate	CameraRate	NumFrames	NumMarkers	Units	OrigDataRate	OrigDataStartFrame	OrigNumFrames
100.0	100.0	4	51	mm	100.0	33	131
Frame#	Time	r_knee			r_shank_antsup			r_ankle			r_calc			r_5meta			r_toe			L_knee			L_shank_antsup			L_ankle			L_calc			L_5meta			L_toe			r_sh2			r_sh3			r_sh4			L_sh2			L_sh3			r_thigh1			r_thigh2			r_thigh3			r_thigh4			r_thigh5			L_thigh1			L_thigh2			L_thigh3			L_thigh4			r.ASIS			r.PSIS			L.ASIS			L.PSIS			C7			R_Shoulder			L_Shoulder			R_Sternum			L_Sternum			R_humerus			R_elbow_med			R_elbow_lat			R_forearm			R_wrist_radius			R_wrist_ulna			L_humerus			L_elbow_med			L_elbow_lat			L_forearm			L_wrist_radius			L_wrist_ulna			R_HJC			L_HJC			R_HJC_reg			L_HJC_reg			
		X1	Y1	Z1	X2	Y2	Z2	X3	Y3	Z3	X4	Y4	Z4	X5	Y5	Z5	X6	Y6	Z6	X7	Y7	Z7	X8	Y8	Z8	X9	Y9	Z9	X10	Y10	Z10	X11	Y11	Z11	X12	Y12	Z12	X13	Y13	Z13	X14	Y14	Z14	X15	Y15	Z15	X16	Y16	Z16	X17	Y17	Z17	X18	Y18	Z18	X19	Y19	Z19	X20	Y20	Z20	X21	Y21	Z21	X22	Y22	Z22	X23	Y23	Z23	X24	Y24	Z24	X25	Y25	Z25	X26	Y26	Z26	X27	Y27	Z27	X28	Y28	Z28	X29	Y29	Z29	X30	Y30	Z30	X31	Y31	Z31	X32	Y32	Z32	X33	Y33	Z33	X34	Y34	Z34	X35	Y35	Z35	X36	Y36	Z36	X37	Y37	Z37	X38	Y38	Z38	X39	Y39	Z39	X40	Y40	Z40	X41	Y41	Z41	X42	Y42	Z42	X43	Y43	Z43	X44	Y44	Z44	X45	Y45	Z45	X46	Y46	Z46	X47	Y47	Z47	X48	Y48	Z48	X49	Y49	Z49	X50	Y50	Z50	X51	Y51	Z51	

33	0.32000000	244.93567	471.91012	-70.77617	278.53990	407.60142	-79.55828	194.34283	84.69953	-109.85759	137.26588	60.26897	-150.65043	304.15306	40.65416	-92.63877	345.17255	58.30244	-148.07342	349.48097	476.78412	-353.92095	327.04090	387.28607	-338.22840	61.90032	238.62642	-304.61310	3.01928	254.61170	-249.71270	84.25096	126.67896	-341.42144	141.50546	103.89761	-297.86272	256.94541	297.22273	-76.58410	208.80572	420.75722	-45.99239	178.12817	308.14583	-49.60057	281.95386	456.34094	-370.56950	184.72442	381.34135	-363.42816	282.17886	721.04213	-17.45647	288.96455	608.25853	-37.24094	226.47767	582.38384	-34.84154	168.18736	710.28398	-16.84226	174.32310	599.72062	-51.85954	300.49369	750.00234	-379.27466	356.14244	622.79724	-368.89417	197.67620	707.41759	-377.27958	250.31226	584.30408	-342.93649	305.08377	929.52465	-85.74636	89.68425	953.96938	-152.80868	298.43325	920.57225	-309.18892	90.13972	946.80920	-233.89017	184.32321	1398.75048	-181.25630	233.01119	1360.73868	-40.53004	222.33267	1373.02909	-319.73085	309.35655	1328.04077	-160.75272	306.36936	1330.44687	-202.05354	256.77284	1246.58366	17.25441	172.96416	1038.65341	11.91015	213.29409	1048.42207	62.35848	283.18365	984.55831	68.19600	339.40301	850.60970	59.09672	312.66212	842.89867	87.31957	226.60901	1274.20595	-394.66081	177.75052	1050.54465	-383.71649	203.73514	1073.87102	-441.54694	274.35510	992.97053	-458.11805	326.97913	875.39742	-454.16730	298.16133	867.12628	-481.76401	223.90443	841.05356	-85.81718	216.74449	834.15612	-293.09495	229.95042	863.64215	-111.00604	230.77998	850.65521	-258.08279	
34	0.33000000	247.36249	472.28990	-71.19709	280.22273	407.78100	-79.97391	194.74600	85.27222	-110.35228	137.62061	60.63365	-151.04690	304.22685	40.72743	-92.73042	345.29323	58.08075	-148.16040	371.01826	481.87556	-352.36062	352.27114	391.45833	-337.03610	93.17715	231.96772	-304.63090	32.89709	244.74078	-250.36507	121.88541	121.60661	-341.38765	179.31206	101.59926	-297.19513	258.05153	297.50798	-77.01540	210.46754	421.32366	-46.62821	179.19323	308.88276	-50.32501	304.57947	458.72101	-369.55657	210.36367	379.79295	-362.93298	289.78582	720.79486	-17.74572	294.34955	608.04696	-37.71987	231.55797	583.20812	-35.30455	175.54093	712.08868	-16.81262	179.66292	601.48303	-52.33706	314.04914	753.25236	-379.45400	373.28426	627.60264	-368.57062	212.53723	707.78910	-376.87844	268.68150	586.45367	-342.00487	315.45390	930.24364	-85.17411	100.48473	955.21536	-153.29015	309.49185	922.20753	-308.43940	101.22705	948.35236	-234.36549	195.70245	1399.63139	-180.94112	245.01026	1361.83968	-40.56119	233.33368	1373.93891	-319.61020	320.49260	1329.04002	-160.99167	317.50903	1331.37873	-202.26800	271.05164	1248.29005	16.89562	190.81914	1038.83936	13.37464	231.89476	1049.35115	63.12445	303.53725	987.42668	67.25685	363.57735	855.20126	56.32028	337.34571	846.63145	85.08228	236.46676	1274.97325	-394.55108	186.10877	1051.91716	-382.38494	211.52400	1074.70163	-440.56685	280.44366	992.76144	-458.34819	330.80235	874.00522	-455.26267	301.43775	866.47917	-482.46716	234.08804	841.89088	-85.96457	227.91470	835.78637	-293.29155	240.31911	864.67021	-110.91238	241.66590	852.22853	-257.87956	
35	0.34000000	249.61573	472.70300	-71.67623	281.75515	407.98420	-80.47944	195.13905	85.86882	-110.87515	138.00178	61.05707	-151.41748	304.29630	40.81461	-92.83289	345.37734	57.85390	-148.27940	391.74199	486.82331	-350.70709	377.09608	395.49922	-335.77539	125.13462	224.27145	-304.78920	63.57455	233.61991	-251.19971	160.47537	115.86904	-341.26971	218.06706	98.99368	-296.41527	259.06527	297.82185	-77.51472	212.02394	421.92209	-47.31990	180.16734	309.64930	-51.09106	326.46874	460.77429	-368.59835	235.86413	377.59903	-362.59662	297.12026	720.44760	-17.95674	299.56060	607.78368	-38.24811	236.45487	583.97634	-35.91627	182.76888	713.79829	-16.93735	184.85953	603.23781	-53.03202	327.39514	756.22949	-379.68332	389.88966	632.10966	-368.22812	227.20475	708.14410	-376.59952	286.51938	588.59934	-341.03618	325.71503	930.68456	-84.44369	111.26246	956.20227	-154.05356	320.72145	923.57060	-307.46669	112.37474	949.65319	-235.16333	207.06884	1400.30704	-180.68557	256.94582	1362.76811	-40.62004	244.34141	1374.64456	-319.51531	331.59150	1329.94505	-161.21787	328.67288	1332.18348	-202.49493	285.25035	1249.86534	16.47983	208.72274	1038.91256	14.67366	250.40532	1050.23990	63.75387	323.72808	990.31528	66.28463	387.58044	859.96918	53.52868	361.84579	850.51494	82.72841	246.23209	1275.57720	-394.51616	194.36530	1053.11765	-381.26684	219.22551	1075.40052	-439.75736	286.53227	992.52428	-458.69732	334.80305	872.72239	-456.38994	304.89726	865.88940	-483.20387	244.07876	842.46827	-86.11874	239.28749	837.14840	-293.49516	250.62703	865.42756	-110.74205	252.63839	853.57051	-257.55579	
36	0.35000000	251.73189	473.15972	-72.18499	283.15790	408.22063	-81.02268	195.52583	86.48825	-111.41221	138.39315	61.53639	-151.77238	304.36676	40.90827	-92.93989	345.44206	57.62753	-148.41364	411.66506	491.50142	-348.98001	401.48473	399.34258	-334.43499	157.79233	215.69086	-305.08189	95.12007	221.38732	-252.16311	199.94579	109.67776	-341.11366	257.69070	96.26057	-295.61177	260.00240	298.18061	-78.03759	213.49404	422.56517	-48.04326	181.05901	310.46159	-51.87993	347.69395	462.38843	-367.71718	261.27173	374.77420	-362.41966	304.17921	720.02625	-18.09961	304.62064	607.47556	-38.84738	241.18116	584.69658	-36.65446	189.89460	715.42086	-17.22891	189.90370	605.03721	-53.88161	340.59793	758.89036	-379.95009	406.01489	636.24777	-367.83001	241.69723	708.46641	-376.44305	303.82343	590.66688	-340.06697	335.89041	930.83285	-83.61974	122.01825	956.92770	-155.05776	332.10853	924.63266	-306.35915	123.57449	950.65998	-236.23489	218.43618	1400.77559	-180.47859	268.82754	1363.50887	-40.69434	255.33566	1375.12934	-319.45750	342.70008	1330.72360	-161.43440	339.87091	1332.83225	-202.73276	299.35581	1251.28464	16.02824	226.67537	1038.84065	15.80820	268.80844	1051.07286	64.25241	343.75930	993.18026	65.26565	411.35693	864.86976	50.72352	386.13363	854.52192	80.26302	255.91389	1275.98301	-394.53468	202.52793	1054.11764	-380.35955	226.87606	1075.94027	-439.11262	292.67800	992.23187	-459.13775	339.02834	871.52482	-457.54209	308.60586	865.32148	-483.97785	253.92781	842.77226	-86.30030	250.82802	838.20962	-293.71983	260.87238	865.95207	-110.51886	263.67836	854.62781	-257.14350	
